<?xml version="1.0" encoding="UTF-8"?>
<svg width="40px" height="40px" viewBox="0 0 40 40" version="1.1" xmlns="http://www.w3.org/2000/svg" xmlns:xlink="http://www.w3.org/1999/xlink">
    <!-- Generator: Sketch 52.6 (67491) - http://www.bohemiancoding.com/sketch -->
    <title>Artboard</title>
    <desc>Created with Sketch.</desc>
    <g id="Artboard" stroke="none" stroke-width="1" fill="none" fill-rule="evenodd">
        <path d="M15.5002591,22 C10.8133027,22 7,26.0771732 7,31.0889529 L7,34.9630801 C7,35.5356688 7.47579631,36 8.06237852,36 L22.9376215,36 C23.5242685,36 24,35.5356056 24,34.9630801 L24,31.0889529 C24,26.07711 20.1871508,22 15.5002591,22 Z M21.8751782,33.925591 L9.12527535,33.925591 L9.12527535,31.0889529 C9.12527535,27.2207698 11.9850418,24.0738399 15.5001944,24.0738399 C19.0153469,24.0738399 21.8751782,27.2207698 21.8751782,31.0889529 L21.8751782,33.925591 Z" id="Shape" fill="#FFF4E0" fill-rule="nonzero"></path>
        <path d="M15,20 C18.8598432,20 22,16.8598941 22,12.9999672 C22,9.14004024 18.8598432,6 15,6 C11.1401568,6 8,9.14010591 8,12.9999672 C8,16.8598284 11.1400912,20 15,20 Z M15,8.15414417 C17.6717698,8.15414417 19.8458659,10.3277909 19.8458659,13.0000328 C19.8458659,15.6722748 17.6717698,17.8459215 15,17.8459215 C12.3277706,17.8459215 10.1536088,15.6722748 10.1536088,13.0000328 C10.1536088,10.3277909 12.3277049,8.15414417 15,8.15414417 Z" id="Shape" fill="#FFF4E0" fill-rule="nonzero"></path>
        <path d="M26.0439406,20 C24.3649036,20 22.7636598,20.5415002 21.4125591,21.5650808 C20.9449485,21.9188094 20.862637,22.5728077 21.2283568,23.0246391 C21.5941421,23.4774853 22.2684155,23.5567539 22.7359607,23.2034693 C23.7054292,22.4682364 24.8498015,22.0803272 26.0438751,22.0803272 C29.2468866,22.0803272 31.8518463,24.9206191 31.8518463,28.4128801 L31.8518463,30.9202435 L25.9456513,30.9202435 C25.3527072,30.9202435 24.8718691,31.3859629 24.8718691,31.9601218 C24.8718691,32.5342807 25.3527727,33 25.9456513,33 L32.9262178,33 C33.5191619,33 34,32.5342807 34,31.9601218 L34,28.4128166 C34.0000655,23.7742038 30.4312687,20 26.0439406,20 Z" id="Path" fill="#FFF4E0"></path>
        <path d="M21.7983923,7.57321901 C22.6777847,6.67436537 23.8672902,6.15368956 25.1512366,6.15368956 C27.7657074,6.15368956 29.892876,8.32786731 29.892876,11.0002627 C29.892876,13.6721327 27.7657716,15.8463104 25.1512366,15.8463104 C24.6940013,15.8463104 24.2271935,15.7795925 23.7734918,15.6390645 C23.2158408,15.4666879 22.6290866,15.7888516 22.4599925,16.3577928 C22.291862,16.9272594 22.6070504,17.528509 23.1636735,17.7008856 C23.8216759,17.9035348 24.488737,18 25.1513008,18 C28.9277158,18 32,14.8602507 32,11.0002627 C32,7.14027468 28.9276515,4 25.1511723,4 C23.3111169,4 21.584519,4.74545489 20.3086675,6.05006661 C19.8971108,6.47073116 19.8971108,7.15255446 20.3086675,7.57321901 C20.7197745,7.99388356 21.3873495,7.99388356 21.7983923,7.57321901 Z" id="Path" fill="#FFF4E0"></path>
    </g>
</svg>