<?xml version="1.0" encoding="UTF-8"?>
<svg width="40px" height="40px" viewBox="0 0 40 40" version="1.1" xmlns="http://www.w3.org/2000/svg" xmlns:xlink="http://www.w3.org/1999/xlink">
    <!-- Generator: Sketch 52.6 (67491) - http://www.bohemiancoding.com/sketch -->
    <title>Artboard</title>
    <desc>Created with Sketch.</desc>
    <g id="Artboard" stroke="none" stroke-width="1" fill="none" fill-rule="evenodd">
        <path d="M13.150852,32.8593361 L27.8530089,32.8593361 C28.1981777,32.8593361 28.4890778,32.5798505 28.4890778,32.2350874 L28.4890778,22.1869606 C28.4890778,21.3132776 29.2042714,20.6107471 30.0865073,20.6107471 C30.974894,20.6107471 31.6839368,21.315719 31.6839368,22.1853458 L31.6839368,34.4254013 C31.6839368,35.2987665 30.9678656,36 30.0845471,36 L10.9193137,36 C10.0386855,36 9.31992407,35.2950281 9.31992407,34.4254013 L9.31992407,22.1853458 C9.31992407,21.3119806 10.0351176,20.6107471 10.9173536,20.6107471 C11.8057403,20.6107471 12.514783,21.3164419 12.514783,22.1869606 L12.514783,32.2350874 C12.514783,32.5804936 12.7995608,32.8593361 13.150852,32.8593361 Z M32.3010131,18.7781678 L20.9629842,8.13909096 C20.705413,7.89739828 20.2955096,7.90015534 20.0408767,8.13909096 L8.70284773,18.7781678 C8.06335901,19.3782341 7.05371355,19.3536936 6.444551,18.7263488 C5.83114153,18.0946302 5.8573034,17.1064953 6.49349938,16.5095187 L19.3499957,4.44558314 C19.9800764,3.85434494 21.0176692,3.84860657 21.6538651,4.44558314 L34.5103615,16.5095187 C35.1404421,17.1007569 35.1684724,18.0990039 34.5593099,18.7263488 C33.9459004,19.3580674 32.9390735,19.3768938 32.3010131,18.7781678 Z" id="icon_home" stroke="#393E46" fill="#F8B500" fill-rule="nonzero"></path>
    </g>
</svg>