<?xml version="1.0" encoding="UTF-8"?>
<svg width="40px" height="40px" viewBox="0 0 40 40" version="1.1" xmlns="http://www.w3.org/2000/svg" xmlns:xlink="http://www.w3.org/1999/xlink">
    <!-- Generator: Sketch 52.6 (67491) - http://www.bohemiancoding.com/sketch -->
    <title>Artboard</title>
    <desc>Created with Sketch.</desc>
    <g id="Artboard" stroke="none" stroke-width="1" fill="none" fill-rule="evenodd">
        <path d="M7,15.5 C7,10.254 11.753,6 18,6 C22.973,6 28,10.254 28,15.5 C28,20.747 24.075,25 18,25 C17.107,25 15.244,24.898 14.413,24.725 L11,27 L11,23.456 C8.561,21.477 7,18.834 7,15.5 L7,15.5 Z M14.637,26.736 C15.414,26.863 17.181,27 18,27 C25.18,27 30,21.657 30,15.375 C30,9.093 23.977,4 18,4 C10.811,4 5,9.093 5,15.375 C5,19.015 6.387,22.104 9,24.329 L9,30 L14.637,26.736 L14.637,26.736 Z M31.949,13.139 C31.968,13.425 32,13.709 32,14 C32,14.636 31.938,15.259 31.849,15.874 C33.195,17.45 34,19.392 34,21.5 C34,24.834 32.008,27.761 29,29.456 L29,33 L25.587,30.725 C24.756,30.898 23.893,31 23,31 C20.41,31 19.034,30.222 17.154,28.929 C16.609,28.973 16.059,29 15.5,29 C15.102,29 14.712,28.972 14.32,28.949 C16.701,31.276 19.149,32.75 23,32.75 C23.819,32.75 24.618,32.676 25.395,32.549 L31,36 L31,30.329 C34.04,28.246 36,25.015 36,21.375 C36,18.131 34.439,15.211 31.949,13.139 L31.949,13.139 Z M23.5,17 C24.329,17 25,16.329 25,15.5 C25,14.672 24.329,14 23.5,14 C22.671,14 22,14.672 22,15.5 C22,16.329 22.671,17 23.5,17 L23.5,17 Z M11.5,17 C12.329,17 13,16.329 13,15.5 C13,14.672 12.329,14 11.5,14 C10.671,14 10,14.672 10,15.5 C10,16.329 10.671,17 11.5,17 L11.5,17 Z M17.5,17 C18.329,17 19,16.329 19,15.5 C19,14.672 18.329,14 17.5,14 C16.671,14 16,14.672 16,15.5 C16,16.329 16.671,17 17.5,17 L17.5,17 Z" id="icon_chat" fill="#FFF4E0"></path>
    </g>
</svg>