<?xml version="1.0" encoding="UTF-8"?>
<svg width="40px" height="40px" viewBox="0 0 40 40" version="1.1" xmlns="http://www.w3.org/2000/svg" xmlns:xlink="http://www.w3.org/1999/xlink">
    <!-- Generator: Sketch 52.6 (67491) - http://www.bohemiancoding.com/sketch -->
    <title>Artboard</title>
    <desc>Created with Sketch.</desc>
    <g id="Artboard" stroke="none" stroke-width="1" fill="none" fill-rule="evenodd">
        <path d="M18.2,14 L12.8,14 C11.8058875,14 11,14.7835017 11,15.75 L11,18.375 C11,19.3414983 11.8058875,20.125 12.8,20.125 L14.6,20.125 C14.6,20.6082492 15.0029437,21 15.5,21 C15.9970563,21 16.4,20.6082492 16.4,20.125 L18.2,20.125 C19.1941125,20.125 20,19.3414983 20,18.375 L20,15.75 C20,14.7835017 19.1941125,14 18.2,14 Z M12.8571429,19 C12.3839811,18.999493 12.0005432,18.6416176 12,18.2 L12,15.8 C12.0005432,15.3583824 12.3839811,15.000507 12.8571429,15 L15,15 L15,19 L12.8571429,19 Z M19,18.2 C18.9994568,18.6416176 18.6160189,18.999493 18.1428571,19 L16,19 L16,15 L18.1428571,15 C18.6160189,15.000507 18.9994568,15.3583824 19,15.8 L19,18.2 Z" id="Shape" fill="#F8B500" fill-rule="nonzero"></path>
        <polyline id="Fill-71" fill="#F8B500" transform="translate(16.633824, 26.633824) rotate(-10.000000) translate(-16.633824, -26.633824) " points="20.6338237 25.6948237 17.8743237 25.2738237 16.6338237 22.6338237 15.3933237 25.2738237 12.6338237 25.6948237 14.6300737 27.7388237 14.1575737 30.6338237 16.6338237 29.2663237 19.1100737 30.6338237 18.6375737 27.7388237 20.6338237 25.6948237"></polyline>
        <path d="M34.1663878,30.2954087 L33.2219619,30.2954087 L33.2219619,16.9846955 L33.5651663,16.9846955 C35.1872224,16.9846742 36.588126,15.8422263 36.9248427,14.2448532 C37.2615593,12.64748 36.4422786,11.0307267 34.9600266,10.3675217 L21.3948414,4.29804567 C20.5068399,3.90065144 19.4931601,3.90065144 18.6051586,4.29804567 L5.03997341,10.3675217 C3.55772141,11.0307267 2.73844071,12.64748 3.07515733,14.2448532 C3.41187395,15.8422263 4.8127776,16.9846742 6.43483373,16.9846955 L6.77803808,16.9846955 L6.77803808,30.2954087 L5.83361223,30.2954087 C4.26883625,30.2954087 3.00033468,31.5724249 3.00033468,33.1477043 C3.00033468,34.7229837 4.26883625,36 5.83361223,36 L34.1663878,36 C35.7311638,36 36.9996653,34.7229837 36.9996653,33.1477043 C36.9996653,31.5724249 35.7311638,30.2954087 34.1663878,30.2954087 Z M34.1663878,34.0984696 L5.83361223,34.0984696 C5.31202024,34.0984696 4.88918638,33.6727975 4.88918638,33.1477043 C4.88918638,32.6226112 5.31202024,32.1969391 5.83361223,32.1969391 L8.66688979,32.1969391 L8.66688979,15.0831651 L6.43483373,15.0831651 C5.70487146,15.0830983 5.07446373,14.5689421 4.92295118,13.850084 C4.77143863,13.1312258 5.14012951,12.4036547 5.80716831,12.1051782 L19.3721457,6.03568321 C19.77182,5.85681171 20.2280667,5.85681171 20.627741,6.03568321 L34.1930206,12.1051782 C34.8600523,12.4036979 35.228706,13.1313023 35.0771476,13.8501619 C34.9255891,14.5690215 34.2951395,15.0831458 33.5651663,15.0831651 L31.3331102,15.0831651 L31.3331102,32.1969391 L34.1663878,32.1969391 C34.6879798,32.1969391 35.1108136,32.6226112 35.1108136,33.1477043 C35.1108136,33.6727975 34.6879798,34.0984696 34.1663878,34.0984696 Z" id="Shape" fill="#00ADB5" fill-rule="nonzero"></path>
        <path d="M27.2769732,16.0890798 C27.2769732,16.1824136 27.2436402,16.2824126 27.1769732,16.3890798 C27.0836394,16.5357472 27.02364,16.6290796 26.9969732,16.6690798 C26.690305,17.4290836 26.4636406,18.3957406 26.3169732,19.5690798 C26.2503062,19.9824152 26.1503072,20.9824052 26.0169732,22.5690798 C26.0169732,22.6357468 26.0003067,22.7657455 25.9669732,22.9590798 C25.9336397,23.1524141 25.9169732,23.3024126 25.9169732,23.4090798 C25.9169732,23.7557482 25.9903058,24.2157436 26.1369732,24.7890798 C26.0569728,24.895747 25.9236408,25.0424122 25.7369732,25.2290798 C25.5903058,25.26908 25.4303074,25.2890798 25.2569732,25.2890798 C24.9903052,25.2890798 24.743641,25.2224138 24.5169732,25.0890798 C24.3169722,24.7157446 24.2169732,24.2357494 24.2169732,23.6490798 C24.2169732,23.0357434 24.3403053,22.1257525 24.5869732,20.9190798 C24.8336411,19.7124071 24.9569732,18.8024162 24.9569732,18.1890798 C24.9569732,17.9490786 24.9136403,17.5857489 24.8269732,17.0990798 C24.7403061,16.6124107 24.6969732,16.249081 24.6969732,16.0090798 C24.6969732,15.8757458 24.7103064,15.7624136 24.7369732,15.6690798 C25.0703082,15.3890784 25.4769708,15.2490798 25.9569732,15.2490798 C26.2369746,15.2490798 26.5169718,15.3157458 26.7969732,15.4490798 C27.1169748,15.622414 27.2769732,15.8357452 27.2769732,16.0890798 Z M26.6969732,27.4690798 C26.6969732,28.4824182 26.116979,28.9890798 24.9569732,28.9890798 C24.7436388,28.9890798 24.3369762,28.8624144 23.7369732,28.6090798 C23.5769724,28.315745 23.4969732,28.0357478 23.4969732,27.7690798 C23.4969732,26.9957426 23.9703018,26.6090798 24.9169732,26.6090798 C25.2636416,26.6090798 25.6169714,26.6757458 25.9769732,26.8090798 C26.4569756,26.982414 26.6969732,27.2024118 26.6969732,27.4690798 Z" id="!" fill="#F8B500" transform="translate(25.386973, 22.119080) rotate(13.000000) translate(-25.386973, -22.119080) "></path>
    </g>
</svg>